<?xml version="1.0" encoding="UTF-8"?>
<svg id="Ebene_1" data-name="Ebene 1" xmlns="http://www.w3.org/2000/svg" viewBox="0 0 243.5 243.5">
  <defs>
    <style>
      .cls-1 {
        stroke: #000;
        stroke-miterlimit: 10;
      }

      .cls-2 {
        fill: none;
      }

      .cls-2, .cls-3, .cls-4 {
        stroke-width: 0px;
      }

      .cls-3 {
        fill: #fff;
      }

      .cls-4 {
        fill: #006837;
      }
    </style>
  </defs>
  <rect class="cls-1" x=".5" y=".5" width="242.5" height="242.5"/>
  <g>
    <polygon class="cls-2" points="184.06 159.05 150.58 115.18 151.11 111.21 188.87 82.43 191.17 81.91 207.81 85.4 208.94 90.44 181.23 111.41 184.64 111.75 204.61 96.94 209.1 98.83 210.92 112.02 209.85 114.66 194.17 126.75 194.25 131.17 207.67 121.07 212.21 123.44 211.51 141.28 210.34 143.46 187.98 159.62 184.06 159.05"/>
    <polygon class="cls-3" points="209.37 123.33 191.53 136.77 186.08 130.6 208.12 112.41 206.3 99.22 179.77 120.36 173.77 113.5 207.22 88.18 190.58 84.69 152.83 113.46 186.32 157.33 208.68 141.17 209.37 123.33"/>
    <polygon class="cls-2" points="34.32 136.52 34.36 134.11 58.11 85.76 40.48 63.33 40.99 59.33 49.42 52.86 52.39 52.57 102.13 76.88 102.61 77.18 124.91 94.34 125.96 96.06 129.29 113.67 138.45 92.09 139.7 90.71 161.32 78.92 165.27 82.56 150.32 116.27 182.48 159.19 179.92 163.7 153.07 160.84 151.06 159.66 138.07 141.31 135.56 146.81 138.22 160.89 136.19 164.15 117.65 169.23 114.11 167.02 101.96 102.44 80.39 97.03 50.13 160.39 44.98 160.32 34.32 136.52"/>
    <polygon class="cls-3" points="162.67 81.41 141.06 93.2 128.25 123.39 123.18 96.58 51.15 55.11 51.15 55.11 42.71 61.58 65.83 81.01 36.91 135.36 47.57 159.16 78.83 88.8 104.41 100.13 116.9 166.49 135.44 161.42 132.61 146.46 137.53 135.64 153.37 158.02 180.22 160.89 147.06 116.64 162.67 81.41"/>
    <path class="cls-2" d="m91.84,193.05l-5.14-28.55-11.52,1.9-2.3-.64-13.93-11.85-.76-3.3,21.82-49.66,3.4-2.23,14.68,3.63,2.23,2.31,6.63,39.41,2.29,13.8,1.94,12.58-.41,1.95-13.77,21.65-5.18-1.02Zm-12.52-47.24l4.12-.69-1.08-6.51-3.04,7.19Z"/>
    <path class="cls-4" d="m104.16,144.55l-6.63-39.41-14.93-3.04-21.82,49.66,13.93,11.85,14.28-2.36,5.63,31.3,13.77-21.65-1.94-12.55-2.29-13.79Zm-29.47,4.9l8.86-20.93,3.15,18.94-12,2Z"/>
    <polygon class="cls-2" points="45.2 175.22 45.28 172.73 52.47 159.2 56.6 158.73 69.16 169.22 69.87 172.53 59.41 195.46 54.24 195.44 45.2 175.22"/>
    <polygon class="cls-3" points="50.43 169.73 59.48 189.95 69.94 167.02 57.62 156.2 50.43 169.73"/>
  </g>
</svg>